<svg width="17" height="15" viewBox="0 0 17 15" fill="none" xmlns="http://www.w3.org/2000/svg">
<path d="M1.70528 7.06494H15.7035C15.8891 7.06494 16.0672 7.13868 16.1984 7.26994C16.3297 7.4012 16.4034 7.57922 16.4034 7.76485C16.4034 7.95048 16.3297 8.12851 16.1984 8.25977C16.0672 8.39102 15.8891 8.46476 15.7035 8.46476H1.70528C1.51965 8.46476 1.34163 8.39102 1.21037 8.25977C1.07911 8.12851 1.00537 7.95048 1.00537 7.76485C1.00537 7.57922 1.07911 7.4012 1.21037 7.26994C1.34163 7.13868 1.51965 7.06494 1.70528 7.06494Z" fill="#495057"/>
<path d="M1.99504 7.76465L7.8001 13.5683C7.93153 13.6997 8.00536 13.878 8.00536 14.0639C8.00536 14.2497 7.93153 14.428 7.8001 14.5594C7.66868 14.6908 7.49043 14.7646 7.30457 14.7646C7.1187 14.7646 6.94045 14.6908 6.80903 14.5594L0.509824 8.26019C0.444644 8.19517 0.392931 8.11793 0.357646 8.0329C0.322362 7.94787 0.304199 7.85671 0.304199 7.76465C0.304199 7.67259 0.322362 7.58143 0.357646 7.4964C0.392931 7.41136 0.444644 7.33413 0.509824 7.26911L6.80903 0.969907C6.94045 0.838482 7.1187 0.764648 7.30457 0.764648C7.49043 0.764648 7.66868 0.838482 7.8001 0.969907C7.93153 1.10133 8.00536 1.27958 8.00536 1.46544C8.00536 1.65131 7.93153 1.82956 7.8001 1.96098L1.99504 7.76465Z" fill="#495057"/>
</svg>
