<svg  version="1.1" x="0px" y="0px" viewBox="0 0 1000 1000" enable-background="new 0 0 1000 1000">
<g><g transform="translate(0.000000,511.000000) scale(0.100000,-0.100000)"><path d="M4950.9,4983.3c-381.4-102.8-832.1-379.5-1177.9-721.4c-318.2-316.2-498-626.5-549.4-950.7c-11.9-69.2-21.7-389.3-21.7-709.5l-2-583l-624.5-415c-345.9-227.3-642.3-430.8-662.1-448.6c-27.7-27.7-35.6-67.2-35.6-193.7V803.2H1425c-426.9,0-454.6-2-504-41.5l-51.4-39.5l-4-2158.2l-5.9-2158.2l-280.7-9.9c-310.3-11.8-343.9-23.7-345.9-132.4c-2-69.2,438.8-964.5,502-1017.8c37.5-33.6,268.8-35.6,4259.1-35.6c2929,0,4229.5,5.9,4257.1,21.7c23.7,11.9,140.3,223.3,284.6,511.9c227.3,456.6,243.1,498.1,225.3,553.4c-11.9,33.6-37.6,69.2-57.3,79.1c-19.8,11.8-166,19.8-324.1,19.8h-288.6l-4,2166.1l-5.9,2166.1l-47.4,37.5c-41.5,33.6-81,37.5-369.6,37.5h-324.1v128.5c0,69.2-9.9,146.3-21.7,171.9c-11.9,25.7-290.5,225.3-656.2,472.4l-636.4,426.9l-9.9,679.9c-11.9,747.1-13.8,758.9-158.1,1043.5c-260.9,517.8-998.1,1106.8-1575.2,1257C5146.6,5018.9,5081.4,5018.9,4950.9,4983.3z M5330.4,4647.3c355.8-134.4,826.1-478.3,1071.2-788.6c164-205.5,256.9-397.3,300.4-614.7c13.8-65.2,15.8-731.3,5.9-1950.7l-13.8-1853.9h-705.6c-387.4,0-1108.8,5.9-1600.9,13.8l-895.3,11.8l11.9,1893.4L3516,3252l57.3,166c130.4,381.5,490.2,766.9,990.2,1061.3c199.6,118.6,448.6,217.4,549.4,217.4C5160.4,4696.7,5257.2,4675,5330.4,4647.3z M3201.8,951.5V269.6l-504-336c-276.7-183.8-507.9-336-513.9-336c-13.8,0-11.9,571.2,4,1015.9l11.9,373.5l486.2,322.2c266.8,175.9,492.1,322.2,502,322.2C3195.9,1633.3,3201.8,1327,3201.8,951.5z M7547.9,1277.6l476.3-316.2V267.6v-693.7l-57.3,37.6c-31.6,19.8-256.9,170-504,332L7016.2,240v689.8c0,587,3.9,685.8,27.7,677.9C7059.7,1601.7,7287,1453.5,7547.9,1277.6z M1877.6-133.6c0-891.3-37.5-871.6,751-351.8l543.5,359.7l9.9-318.2l9.9-318.2l55.3-47.4c55.3-47.5,63.2-47.5,440.7-47.5h383.4v-395.3c0-492.1-17.8-464.5,298.4-484.2c124.5-5.9,551.4-9.9,950.6-5.9c666.1,5.9,729.3,7.9,760.9,41.5c31.6,29.6,37.5,85,45.5,434.8l9.9,399.2l399.2,5.9l399.2,3.9l39.5,53.4c37.5,45.4,41.5,77.1,41.5,365.6v314.2l549.4-369.6c585-395.3,632.5-417,717.4-332.1c37.6,37.6,39.5,73.1,51.4,675.9l11.8,636.4h215.4h213.4v-899.3v-899.3l-53.4,21.7c-102.8,37.6-343.9,43.5-519.8,9.9c-173.9-31.6-419-138.3-482.3-207.5c-35.6-37.5-35.6-37.5-126.5,3.9c-77.1,35.6-130.5,43.5-322.1,43.5c-223.3,0-229.3-2-377.5-75.1c-490.1-241.1-632.5-845.9-308.3-1300.5c17.8-25.7,13.8-53.4-19.8-132.4c-63.3-148.2-92.9-367.6-69.2-515.9c9.9-65.2,13.8-124.5,9.9-130.4c-11.9-11.9-2909.3-13.8-2909.3-2c0,5.9,43.5,53.3,96.8,108.7c183.8,189.7,278.7,476.3,239.1,721.4c-37.5,237.2-193.7,476.3-385.4,598.8l-85,53.4l-7.9,207.5c-5.9,185.8-13.8,223.3-71.1,339.9c-266.8,553.4-1017.9,660.1-1423,203.6c-87-98.8-90.9-100.8-160.1-83c-162.1,45.4-478.3-27.7-598.9-136.4c-33.6-29.6-35.6,13.8-35.6,1017.9V487h355.8h355.8V-133.6z M5826.4-1147.5l5.9-282.6h-733.3h-731.3v272.7c0,150.2,5.9,280.7,13.8,286.6c7.9,7.9,334,11.9,725.3,9.9l713.5-5.9L5826.4-1147.5z M2832.2-1436c124.5-51.4,260.9-203.6,300.4-336c37.5-126.5,37.5-197.6-2-328.1c-43.5-150.2-17.8-201.6,128.5-264.8c241.1-104.7,365.6-280.7,365.6-517.8c2-304.4-205.5-527.7-517.8-557.4c-118.6-11.8-173.9-45.4-203.6-120.5l-17.8-43.5l-853.8,4l-855.8,5.9l-5.9,885.4c-4,871.6-4,885.4,33.6,863.7c63.2-33.6,114.6-23.7,231.2,41.5c130.4,75.1,258.9,81,413.1,23.7c144.3-55.3,173.9-43.5,274.7,110.7c114.6,177.9,203.6,241.1,397.3,276.7C2620.7-1372.8,2713.6-1386.6,2832.2-1436z M8670.5-1592.2l104.7-25.7V-2610v-994.1h-966.5h-964.5l-25.7,88.9c-33.6,116.6-17.8,355.8,29.6,444.7c19.8,37.6,55.3,94.9,81,124.5c67.2,81,59.3,136.4-35.6,245.1c-164,191.7-213.4,395.3-142.3,602.8c71.2,211.5,288.6,361.7,523.7,361.7c112.7,0,150.2-9.9,272.8-73.1c79.1-41.5,160.1-75.1,181.8-75.1c23.7,0,83,43.5,134.4,96.8c49.4,51.4,120.6,110.7,156.1,128.5C8184.3-1574.4,8466.9-1544.7,8670.5-1592.2z M9225.9-4187.2l-144.3-286.6H5000.3H919.1l-144.3,286.6l-142.3,286.6h4367.9h4367.8L9225.9-4187.2z"/><path d="M4986.5,3590c-405.2-61.3-745.1-328.1-887.4-699.6c-63.2-166-85-452.6-47.4-632.4c39.5-189.7,158.1-403.2,310.3-549.4c219.4-211.5,466.4-312.3,766.8-312.3c484.2,0,891.4,296.5,1047.5,757c55.3,164.1,67.2,436.8,27.7,606.8c-85,369.6-417,709.5-780.7,798.5C5265.2,3597.9,5109,3607.7,4986.5,3590z M5360,3254c310.3-94.9,527.7-363.7,563.3-693.7c51.4-494.1-438.8-944.7-925-849.8c-428.9,85-727.3,496.1-654.2,907.2C4429.1,3097.8,4903.5,3394.3,5360,3254z"/><path d="M5207.8,2995.1c-189.7-146.3-600.8-496.1-610.7-523.7c-21.7-55.3-11.9-100.8,29.6-154.2c51.4-65.2,148.2-69.2,227.3-7.9c156.1,120.6,517.8,421,557.3,464.5C5539.9,2914,5360,3109.7,5207.8,2995.1z"/><path d="M4446.9-2325.4c-87-43.5-100.8-100.8-94.9-385.4c5.9-251,7.9-266.8,53.4-302.4c63.2-51.4,152.2-47.4,209.5,11.9c47.4,45.4,49.4,57.3,49.4,322.1c0,247.1-4,276.7-39.5,316.2c-23.7,23.7-49.4,43.5-59.3,43.5c-7.9,0-27.7,4-43.5,9.9C4508.2-2303.7,4474.6-2311.6,4446.9-2325.4z"/><path d="M5573.5-2359c-33.6-33.6-39.5-69.2-43.5-260.9c-5.9-326.1-2-357.7,45.5-395.3c59.3-51.4,160.1-45.5,211.5,9.9c39.5,43.5,43.5,65.2,43.5,326.1c0,255-4,284.6-39.5,320.2c-23.7,23.7-65.2,39.5-108.7,39.5C5638.7-2319.5,5597.2-2335.3,5573.5-2359z"/></g></g>
</svg>