<svg width="14" height="14" viewBox="0 0 14 14" fill="none" xmlns="http://www.w3.org/2000/svg">
<path d="M9.80619 8.61413H9.18778L8.96859 8.40959C9.73574 7.54598 10.1976 6.4248 10.1976 5.20514C10.1976 2.48552 7.91963 0.281036 5.10936 0.281036C2.29908 0.281036 0.0211182 2.48552 0.0211182 5.20514C0.0211182 7.92476 2.29908 10.1292 5.10936 10.1292C6.36967 10.1292 7.52823 9.68228 8.42063 8.93988L8.63198 9.15199V9.75046L12.546 13.5307L13.7124 12.4019L9.80619 8.61413ZM5.10936 8.61413C3.16017 8.61413 1.58673 7.09145 1.58673 5.20514C1.58673 3.31883 3.16017 1.79614 5.10936 1.79614C7.05854 1.79614 8.63198 3.31883 8.63198 5.20514C8.63198 7.09145 7.05854 8.61413 5.10936 8.61413Z" fill="#586069"/>
</svg>
