<svg fill="#000000" xmlns="http://www.w3.org/2000/svg"  viewBox="0 0 64 64" width="64px" height="64px"><path d="M 39 13 C 36.668718 13 34.469245 13.579867 32.537109 14.587891 A 1.0001 1.0001 0 0 0 32 15.474609 L 32 42 A 1.0001 1.0001 0 0 0 33 43 L 55 43 C 59.958516 43 64 38.958516 64 34 C 64 29.041484 59.958516 25 55 25 C 54.232272 25 53.541511 25.243634 52.830078 25.425781 C 52.03725 18.453904 46.180741 13 39 13 z M 39 15 C 45.512544 15 50.77884 20.163268 50.978516 26.625 A 1.0001 1.0001 0 0 0 52.355469 27.519531 C 53.174365 27.186004 54.064458 27 55 27 C 58.877484 27 62 30.122516 62 34 C 62 37.877484 58.877484 41 55 41 L 34 41 L 34 16.15625 C 35.529798 15.447388 37.202818 15 39 15 z M 28.984375 15.986328 A 1.0001 1.0001 0 0 0 28 17 L 28 42 A 1.0001 1.0001 0 1 0 30 42 L 30 17 A 1.0001 1.0001 0 0 0 28.984375 15.986328 z M 20.984375 18.986328 A 1.0001 1.0001 0 0 0 20 20 L 20 42 A 1.0001 1.0001 0 1 0 22 42 L 22 20 A 1.0001 1.0001 0 0 0 20.984375 18.986328 z M 16.984375 19.986328 A 1.0001 1.0001 0 0 0 16 21 L 16 42 A 1.0001 1.0001 0 1 0 18 42 L 18 21 A 1.0001 1.0001 0 0 0 16.984375 19.986328 z M 24.984375 19.986328 A 1.0001 1.0001 0 0 0 24 21 L 24 42 A 1.0001 1.0001 0 1 0 26 42 L 26 21 A 1.0001 1.0001 0 0 0 24.984375 19.986328 z M 12.984375 22.986328 A 1.0001 1.0001 0 0 0 12 24 L 12 42 A 1.0001 1.0001 0 1 0 14 42 L 14 24 A 1.0001 1.0001 0 0 0 12.984375 22.986328 z M 4.984375 26.986328 A 1.0001 1.0001 0 0 0 4 28 L 4 41 A 1.0001 1.0001 0 1 0 6 41 L 6 28 A 1.0001 1.0001 0 0 0 4.984375 26.986328 z M 8.984375 26.986328 A 1.0001 1.0001 0 0 0 8 28 L 8 42 A 1.0001 1.0001 0 1 0 10 42 L 10 28 A 1.0001 1.0001 0 0 0 8.984375 26.986328 z M 0.984375 29.986328 A 1.0001 1.0001 0 0 0 0 31 L 0 39 A 1.0001 1.0001 0 1 0 2 39 L 2 31 A 1.0001 1.0001 0 0 0 0.984375 29.986328 z M 12 47 C 11.448 47 11 47.447 11 48 L 11 50 C 11 50.553 11.448 51 12 51 C 12.552 51 13 50.553 13 50 L 13 48 C 13 47.447 12.552 47 12 47 z M 17 47 C 16.448 47 16 47.447 16 48 L 16 50 C 16 50.553 16.448 51 17 51 C 17.552 51 18 50.553 18 50 L 18 48 C 18 47.447 17.552 47 17 47 z M 22 47 C 21.448 47 21 47.447 21 48 L 21 50 C 21 50.553 21.448 51 22 51 C 22.552 51 23 50.553 23 50 L 23 48 C 23 47.447 22.552 47 22 47 z M 27 47 C 26.448 47 26 47.447 26 48 L 26 50 C 26 50.553 26.448 51 27 51 C 27.552 51 28 50.553 28 50 L 28 48 C 28 47.447 27.552 47 27 47 z M 32 47 C 31.448 47 31 47.447 31 48 L 31 50 C 31 50.553 31.448 51 32 51 C 32.552 51 33 50.553 33 50 L 33 48 C 33 47.447 32.552 47 32 47 z M 37 47 C 36.448 47 36 47.447 36 48 L 36 50 C 36 50.553 36.448 51 37 51 C 37.552 51 38 50.553 38 50 L 38 48 C 38 47.447 37.552 47 37 47 z M 42 47 C 41.448 47 41 47.447 41 48 L 41 50 C 41 50.553 41.448 51 42 51 C 42.552 51 43 50.553 43 50 L 43 48 C 43 47.447 42.552 47 42 47 z M 47 47 C 46.448 47 46 47.447 46 48 L 46 50 C 46 50.553 46.448 51 47 51 C 47.552 51 48 50.553 48 50 L 48 48 C 48 47.447 47.552 47 47 47 z M 52 47 C 51.448 47 51 47.447 51 48 L 51 50 C 51 50.553 51.448 51 52 51 C 52.552 51 53 50.553 53 50 L 53 48 C 53 47.447 52.552 47 52 47 z"/></svg>