<svg width="500" height="500" viewBox="0 0 500 500" fill="none" xmlns="http://www.w3.org/2000/svg">
<g clip-path="url(#clip0)">
<path d="M237.876 65C243.264 55.6667 256.736 55.6667 262.124 65L464.774 416C470.163 425.333 463.427 437 452.65 437H47.3501C36.5729 437 29.8371 425.333 35.2257 416L237.876 65Z" stroke="#5926CC" stroke-width="36"/>
<path d="M271.093 198V248.699L266.565 303.921H233.435L228.907 248.699V198H271.093ZM249.881 317.25C257.031 317.25 262.672 318.996 266.803 322.487C270.934 325.978 273 330.897 273 337.244C273 343.433 270.934 348.272 266.803 351.763C262.672 355.254 257.031 357 249.881 357C242.731 357 237.09 355.254 232.959 351.763C228.986 348.272 227 343.433 227 337.244C227 330.897 228.986 325.978 232.959 322.487C237.09 318.996 242.731 317.25 249.881 317.25Z" fill="#5926CC"/>
</g>
<defs>
<clipPath id="clip0">
<rect width="500" height="500" fill="white"/>
</clipPath>
</defs>
</svg>
